<?xml version="1.0" encoding="utf-8"?>
<!-- Generator: Adobe Illustrator 19.2.1, SVG Export Plug-In . SVG Version: 6.00 Build 0)  -->
<svg version="1.1" id="Layer_1" xmlns="http://www.w3.org/2000/svg" xmlns:xlink="http://www.w3.org/1999/xlink" x="0px" y="0px"
	 viewBox="0 0 88 98.3" style="enable-background:new 0 0 88 98.3;" xml:space="preserve">
<style type="text/css">
	.st0{display:none;}
	.st1{display:inline;}
	.st2{fill:#3FA3DB;}
	.st3{fill:#F5F5F5;}
	.st4{fill:#019CDB;}
</style>
<g id="Layer_2" class="st0">
	<g id="_x30_k9pI5_1_" class="st1">
	</g>
</g>

<g>
	<path class="st3" d="M81.8,63L81.8,63H71v17.3h10.8l0,0l0,0h0.2l0,0c3.6-0.1,6.1-2.5,6.1-6v-5.4C88,65.4,85.5,63.1,81.8,63z
		 M85.8,74.5c0,2.4-1.7,3.8-4.2,3.8h-8.4V65h8.3c2.6,0,4.3,1.5,4.3,3.8V74.5z"/>
	<g>
		<path class="st4" d="M62.1,73.9h-10v6.4h-2.2V63h12.3c1.8,0,3.2,1.5,3.2,3.2v4.4C65.4,72.4,63.9,73.9,62.1,73.9z M61.8,65.1h-9.7
			v6.8h9.7c0.8,0,1.4-0.6,1.4-1.4v-4C63.2,65.7,62.5,65.1,61.8,65.1z"/>
		<path class="st4" d="M18.1,80.3V66.8l-6.9,13.6H9.1L2.2,66.8v13.6H0V63h2.6l7.5,14.8h0.1L17.7,63h2.6v17.3L18.1,80.3L18.1,80.3z"
			/>
		<path class="st4" d="M42.4,80.3l-1.7-3.7h-11l-1.7,3.7h-2.3v-0.1L33.9,63h2.4l8.4,17.3v0.1H42.4z M35.1,65l-4.6,9.7h9.1L35.1,65z"
			/>
		<polygon class="st4" points="5.6,9.3 36,39.7 43.7,39.7 4,0 0.2,0 0.2,49.4 15.1,49.4 15.1,44 5.6,44 		"/>
		<polygon class="st4" points="19.4,0 19.4,9.3 24.9,14.7 24.9,9.3 59.5,44 24.9,44 24.9,34.6 19.4,29.2 19.4,49.4 72.7,49.4 
			23.3,0 		"/>
	</g>
	<path class="st3" d="M84,49.4h3.8V0H34.6L84,49.4z M82.4,40.1L47.7,5.4h34.7V40.1z"/>
</g>
</svg>
